<svg xmlns="http://www.w3.org/2000/svg" viewBox="0 0 60 60">
  <rect width="60" height="60" rx="8" fill="#1a1a2e"/>
  <g transform="translate(10, 10)">
    <path d="M20 2C10.059 2 2 10.059 2 20s8.059 18 18 18c4.641 0 8.886-1.76 12.082-4.646l4.95 4.95v-3.608h4.085L35.355 29.1A17.91 17.91 0 0038 20c0-9.941-8.059-18-18-18z" fill="#F58220"/>
    <circle cx="20" cy="20" r="9" fill="#1a1a2e"/>
    <path d="M30 28l10 10v-6h-4v-6h-6z" fill="#F58220"/>
  </g>
  <circle cx="10" cy="10" r="1.2" fill="#fff" opacity="0.5"/>
  <circle cx="50" cy="8" r="0.8" fill="#fff" opacity="0.4"/>
  <circle cx="52" cy="50" r="1" fill="#fff" opacity="0.5"/>
</svg>
